<?xml version="1.0" encoding="UTF-8" standalone="no"?>
<svg
   width="15.284331"
   zoomAndPan="magnify"
   viewBox="0 0 11.463249 56.855648"
   height="75.807533"
   preserveAspectRatio="xMidYMid"
   version="1.0"
   id="svg58"
   sodipodi:docname="fork.svg"
   inkscape:version="1.4.2 (ebf0e940d0, 2025-05-08)"
   xmlns:inkscape="http://www.inkscape.org/namespaces/inkscape"
   xmlns:sodipodi="http://sodipodi.sourceforge.net/DTD/sodipodi-0.dtd"
   xmlns="http://www.w3.org/2000/svg"
   xmlns:svg="http://www.w3.org/2000/svg">
  <sodipodi:namedview
     id="namedview58"
     pagecolor="#ffffff"
     bordercolor="#000000"
     borderopacity="0.25"
     inkscape:showpageshadow="2"
     inkscape:pageopacity="0.0"
     inkscape:pagecheckerboard="0"
     inkscape:deskcolor="#d1d1d1"
     inkscape:zoom="7.5413069"
     inkscape:cx="20.553467"
     inkscape:cy="28.045537"
     inkscape:window-width="2256"
     inkscape:window-height="1427"
     inkscape:window-x="0"
     inkscape:window-y="0"
     inkscape:window-maximized="1"
     inkscape:current-layer="svg58"
     showgrid="false" />
  <defs
     id="defs29">
    <clipPath
       id="46a64badb7">
      <path
         d="m 173.15625,185.63672 h 2.40234 v 2.93359 h -2.40234 z m 0,0"
         clip-rule="nonzero"
         id="path1" />
    </clipPath>
    <clipPath
       id="49aa5b8187">
      <path
         d="m 174.37109,187.94922 c -1.23828,-1.72266 -1.16406,-2.03125 -1.00781,-2.14844 0.15625,-0.13672 0.5625,-0.19531 0.71484,-0.0781 0.17579,0.11718 0.13672,0.92968 0.17579,0.92968 0.0391,0 -0.0391,-0.62109 0.0586,-0.64062 0.17187,-0.0547 1.0625,1.16406 1.17969,1.6289 0.0586,0.28907 0.0195,0.63672 -0.13282,0.77344 -0.15625,0.15625 -0.60156,0.19531 -0.79687,0.0977 -0.15234,-0.0781 -0.30859,-0.34766 -0.30859,-0.52344 -0.0195,-0.19531 0.11718,-0.44531 0.25,-0.5625 0.0977,-0.0977 0.2539,-0.15234 0.39062,-0.13281 0.17188,0.0156 0.44531,0.13281 0.55859,0.28906 0.0977,0.13672 0.11719,0.44531 0.0586,0.60156 -0.0391,0.13282 -0.13672,0.26953 -0.26953,0.32813 -0.17578,0.0781 -0.52344,0.0781 -0.79297,-0.0781 -0.40625,-0.25 -1.06641,-1.27734 -1.20313,-1.76172 -0.0781,-0.28906 0,-0.7539 0.0391,-0.7539 0.0391,-0.0195 0.2539,0.89062 0.19531,0.91015 -0.0391,0.0195 -0.25391,-0.19531 -0.29297,-0.33203 -0.0547,-0.17187 -0.0195,-0.44531 0.0781,-0.57812 0.0781,-0.13672 0.21485,-0.23438 0.36719,-0.25391 0.15625,-0.0391 0.3711,0 0.5625,0.11719 0.34766,0.23047 0.96875,1.10156 1.16406,1.49219 0.0937,0.1914 0.15235,0.32812 0.13282,0.48047 -0.0195,0.15625 -0.15235,0.39062 -0.28907,0.46484 -0.13671,0.0781 -0.40625,0.0781 -0.54296,0.0195 -0.13672,-0.0391 -0.28907,-0.28906 -0.28907,-0.28906"
         clip-rule="nonzero"
         id="path2" />
    </clipPath>
    <clipPath
       id="2e4e64cbc9">
      <path
         d="m 190.57031,182.60156 h 0.37891 v 0.31641 h -0.37891 z m 0,0"
         clip-rule="nonzero"
         id="path3" />
    </clipPath>
    <clipPath
       id="d4979208e1">
      <path
         d="m 190.57031,182.80078 c 0.17578,-0.25 0.33203,-0.21484 0.36719,-0.15625 0.0195,0.0586 0,0.21484 -0.0547,0.25391 -0.0391,0.0391 -0.2539,-0.0195 -0.2539,-0.0195"
         clip-rule="nonzero"
         id="path4" />
    </clipPath>
    <clipPath
       id="c644fb4cc0">
      <path
         d="m 173,185.8125 h 1.9375 v 2.70312 H 173 Z m 0,0"
         clip-rule="nonzero"
         id="path5" />
    </clipPath>
    <clipPath
       id="4dce9fd78b">
      <path
         d="m 173.1875,186.14844 c 0.63672,1.21875 1.17969,1.80078 1.375,2.01172 0.0937,0.0977 0.17187,0.19531 0.21094,0.17578 0.0195,-0.0195 -0.0195,-0.15625 -0.0586,-0.25391 -0.0742,-0.17187 -0.21093,-0.38672 -0.38672,-0.63672 -0.26953,-0.42578 -1.17968,-1.60937 -1.17968,-1.625 0.0195,0 1.60547,1.72266 1.74218,2.20703 0.0781,0.21094 0.0391,0.44532 -0.0391,0.48047 -0.0977,0.0391 -0.34765,-0.17187 -0.54297,-0.34765 -0.26953,-0.23047 -0.65625,-0.71485 -0.87109,-1.0625 -0.19141,-0.29297 -0.48438,-0.75782 -0.42578,-0.89063 0.0195,-0.0586 0.17578,-0.0586 0.17578,-0.0586"
         clip-rule="nonzero"
         id="path6" />
    </clipPath>
    <clipPath
       id="ca15e3d6a1">
      <path
         d="m 173.16406,186.14844 h 0.0937 v 0.082 h -0.0937 z m 0,0"
         clip-rule="nonzero"
         id="path7" />
    </clipPath>
    <clipPath
       id="d63b6b6a42">
      <path
         d="m 173.17187,186.16797 c 0.17188,-0.0586 0.0195,0.0586 0.0195,0.0586"
         clip-rule="nonzero"
         id="path8" />
    </clipPath>
    <clipPath
       id="7b7ef4b8b7">
      <path
         d="m 174.67578,188.31641 h 0.0937 v 0.0859 h -0.0937 z m 0,0"
         clip-rule="nonzero"
         id="path9" />
    </clipPath>
    <clipPath
       id="4c23a3c516">
      <path
         d="m 174.67969,188.33594 c 0.17578,-0.0547 0.0195,0.0586 0.0195,0.0586"
         clip-rule="nonzero"
         id="path10" />
    </clipPath>
    <clipPath
       id="be7c7e3129">
      <path
         d="m 173.01172,186.37891 h 0.0898 v 0.0859 h -0.0898 z m 0,0"
         clip-rule="nonzero"
         id="path11" />
    </clipPath>
    <clipPath
       id="2e2647ad3b">
      <path
         d="m 173.01562,186.40234 c 0.17579,-0.0586 0.0195,0.0586 0.0195,0.0586"
         clip-rule="nonzero"
         id="path12" />
    </clipPath>
    <clipPath
       id="9e4de5fb5c">
      <path
         d="m 324.56641,175.34375 h 30.97656 v 37.86328 h -30.97656 z m 0,0"
         clip-rule="nonzero"
         id="path13" />
    </clipPath>
    <clipPath
       id="58e83e3bf2">
      <path
         d="m 79.449219,175.06641 h 30.976561 v 37.875 H 79.449219 Z m 0,0"
         clip-rule="nonzero"
         id="path14" />
    </clipPath>
    <clipPath
       id="718f44983d">
      <path
         d="m 168.45703,174.83594 h 34.05078 v 37.94531 h -34.05078 z m 0,0"
         clip-rule="nonzero"
         id="path15" />
    </clipPath>
    <clipPath
       id="863ad090f8">
      <path
         d="m 242,193 h 8 v 43 h -8 z m 0,0"
         clip-rule="nonzero"
         id="path16" />
    </clipPath>
    <clipPath
       id="f3a8099e0b">
      <path
         d="m 223.82812,236.29687 -0.99609,-44.90625 44.90625,-0.99609 0.99609,44.90625 z m 0,0"
         clip-rule="nonzero"
         id="path17" />
    </clipPath>
    <clipPath
       id="c72cd04f06">
      <path
         d="m 223.82812,236.29687 -0.99609,-44.90625 44.90625,-0.99609 0.99609,44.90625 z m 0,0"
         clip-rule="nonzero"
         id="path18" />
    </clipPath>
    <clipPath
       id="4a79491b4b">
      <path
         d="m 223.82812,236.29687 -0.99609,-44.90625 44.90625,-0.99609 0.99609,44.90625 z m 0,0"
         clip-rule="nonzero"
         id="path19" />
    </clipPath>
    <clipPath
       id="e892303a3c">
      <path
         d="m 240,146 h 13 v 67 h -13 z m 0,0"
         clip-rule="nonzero"
         id="path20" />
    </clipPath>
    <clipPath
       id="9c6803989d">
      <path
         d="m 275.20703,137.99219 11.86328,69.46484 -70.23047,11.99609 -11.86328,-69.46875 z m 0,0"
         clip-rule="nonzero"
         id="path21" />
    </clipPath>
    <clipPath
       id="56853abacb">
      <path
         d="m 205.15625,149.95703 11.86328,69.46484 70.23047,-11.99609 -11.86328,-69.46484 z m 0,0"
         clip-rule="nonzero"
         id="path22" />
    </clipPath>
    <clipPath
       id="3cb4aec62b">
      <path
         d="m 205.15625,149.95703 11.86328,69.46484 70.23047,-11.99609 -11.86328,-69.46484 z m 0,0"
         clip-rule="nonzero"
         id="path23" />
    </clipPath>
    <clipPath
       id="c2dd00a2b7">
      <path
         d="m 205.56641,175.29687 h 35.88281 v 37.5586 h -35.88281 z m 0,0"
         clip-rule="nonzero"
         id="path24" />
    </clipPath>
    <clipPath
       id="b45813d7fc">
      <path
         d="m 283.70703,175 h 37.94922 v 38.29297 h -37.94922 z m 0,0"
         clip-rule="nonzero"
         id="path25" />
    </clipPath>
    <clipPath
       id="f3c3c2ea6d">
      <path
         d="m 126.44141,174.74609 h 39.08593 v 37.94922 h -39.08593 z m 0,0"
         clip-rule="nonzero"
         id="path26" />
    </clipPath>
    <clipPath
       id="46b9041d78">
      <path
         d="m 19.117188,175 h 27.0625 v 37.94141 h -27.0625 z m 0,0"
         clip-rule="nonzero"
         id="path27" />
    </clipPath>
    <clipPath
       id="790ce5ea0c">
      <path
         d="m 253.77344,174.91406 h 26.92578 v 37.94531 h -26.92578 z m 0,0"
         clip-rule="nonzero"
         id="path28" />
    </clipPath>
    <clipPath
       id="8d534f0f72">
      <path
         d="m 49.085938,174.74609 h 27.453124 v 37.94922 H 49.085938 Z m 0,0"
         clip-rule="nonzero"
         id="path29" />
    </clipPath>
  </defs>
  <g
     clip-path="url(#863ad090f8)"
     id="g48"
     transform="matrix(1,0,0,0.64053065,-240.50713,-94.181983)"
     style="display:inline">
    <g
       clip-path="url(#f3a8099e0b)"
       id="g47">
      <g
         clip-path="url(#c72cd04f06)"
         id="g46">
        <g
           clip-path="url(#4a79491b4b)"
           id="g45">
          <path
             fill="#0087cc"
             d="m 249.38672,226.80859 c 0,0 -3.88672,8.98828 -3.94922,8.99219 -0.0391,0.008 -3.04297,-9.01562 -3.04297,-9.28516 0.004,-0.25781 1.55469,-33.44531 1.55469,-33.44531 0,0 4.8125,0.26953 4.83203,0.47266 0.0273,0.17578 0.60547,33.26562 0.60547,33.26562 z m -2.83985,-2.58203 c -0.72265,-0.32812 -1.80078,-0.0977 -2.39453,0.50391 -1.35156,1.3789 -0.48047,3.60156 1.4375,3.6914 1.45313,0.0625 2.60938,-1.41796 2.17578,-2.80468 -0.18359,-0.5625 -0.69921,-1.16797 -1.21875,-1.39063 z m 0,0"
             fill-opacity="1"
             fill-rule="nonzero"
             id="path44" />
        </g>
      </g>
    </g>
  </g>
  <g
     clip-path="url(#e892303a3c)"
     id="g52"
     transform="matrix(1,0,0,0.64731148,-240.56832,-95.041631)"
     style="display:inline">
    <g
       clip-path="url(#9c6803989d)"
       id="g51">
      <g
         clip-path="url(#56853abacb)"
         id="g50">
        <g
           clip-path="url(#3cb4aec62b)"
           id="g49">
          <path
             fill="#0087cc"
             d="m 249.76953,146.83594 c -0.19141,0.23047 -0.17578,1.73437 0.15625,10.79687 0.0469,1.58594 0.0391,2.99219 -0.0156,3.125 -0.15625,0.3125 -0.44532,0.39063 -0.75,0.1875 -0.21485,-0.14062 -0.27344,-0.51172 -0.46094,-3.21875 -0.25,-3.68359 -0.94922,-10.8125 -1.0586,-10.8125 -0.0391,0.0117 -0.0937,0.35547 -0.1289,0.77344 -0.0625,1.0625 -0.24219,7.97656 -0.26563,10.37109 -0.0156,1.08594 -0.0586,2.15235 -0.0859,2.36719 -0.16797,1.07031 -1.15235,1.03125 -1.37891,-0.0547 -0.0508,-0.25 -0.16016,-1.59765 -0.23047,-2.99609 -0.13281,-2.62109 -0.85937,-10.08203 -0.98828,-10.19141 -0.12109,-0.10156 -0.16406,0.83594 -0.34375,7.01172 -0.0898,3.23047 -0.17969,6.01172 -0.19531,6.19531 -0.0703,0.70704 -0.83203,1.01172 -1.14453,0.44141 -0.14063,-0.26172 -0.36719,-3.6875 -0.5,-7.69141 -0.0977,-3.12109 -0.30469,-5.91796 -0.4336,-5.89843 -0.26953,0.0195 -0.84765,4.01953 -1.14062,7.91406 -0.23047,3.08203 -0.30469,6.58594 -0.16797,7.88672 0.24609,2.32812 1.2539,3.96484 3.30859,5.39453 0.39063,0.27734 0.77344,0.59766 0.83594,0.70703 0.30078,0.53125 -0.30859,11.1875 -0.73047,21.625 -0.38672,9.5625 -0.51562,15.0625 -0.57422,17.81641 -0.0156,0.64843 0.25,0.6289 0.24219,0.875 -0.004,0.0703 -0.44141,-0.21094 -0.35156,0.25781 0.28906,1.38672 0.91797,2.43359 1.72656,2.88281 0.89062,0.47656 2.15234,0.48438 3.19531,0 0.64063,-0.29297 0.21094,-0.60937 0.59766,-1.41015 0.61328,-1.26563 0.0781,-3.01563 0.0312,-6.44532 -0.0508,-3.88281 0.23047,-4.3789 -0.19141,-14.35547 -0.41015,-9.66796 -1.26953,-18.1875 -1.11328,-20.04687 0.0977,-1.18359 0.13281,-1.23828 1.50781,-2.34766 2.07032,-1.66406 2.88672,-3.49609 2.91016,-6.48828 0.0117,-1.35547 -0.30078,-4.32422 -0.76172,-7.07031 -0.12891,-0.78125 -0.42187,-2.55859 -0.63672,-3.92969 -0.38281,-2.34375 -0.73047,-3.82422 -0.86328,-3.67187 z m 0,0"
             fill-opacity="1"
             fill-rule="evenodd"
             id="path48" />
        </g>
      </g>
    </g>
  </g>
</svg>
