<?xml version="1.0" encoding="utf-8"?>
<svg width="448.568" height="118.634" viewBox="0 0 448.568 118.634" fill="none" xmlns="http://www.w3.org/2000/svg">
  <defs>
    <clipPath id="clip_path_1">
      <rect width="448.568" height="118.634" />
    </clipPath>
  </defs>
  <g clip-path="url(#clip_path_1)">
    <g transform="translate(204.37 50.733)">
      <g>
        <g>
          <path d="M5.1875 5.88021L0 5.88021L0 0L5.1875 0L5.1875 5.88021Z" fill="#FFFFFF" />
        </g>
      </g>
    </g>
    <g transform="translate(227.578 46.624)">
      <g>
        <g>
          <path d="M2.55208 2.50521L0 2.50521L0 0L2.55208 0L2.55208 2.50521Z" fill="#FFFFFF" />
        </g>
      </g>
    </g>
    <g transform="translate(204.135 50.957)">
      <g>
        <g>
          <path d="M4.59375 5.65625L0 5.65625L0 0L4.59375 0L4.59375 5.65625Z" fill="#FFFFFF" />
        </g>
      </g>
    </g>
    <g transform="translate(204.344 51.322)">
      <g>
        <g>
          <path d="M2.32813 2.24479L0 2.24479L0 0L2.32813 0L2.32813 2.24479Z" fill="#FFFFFF" />
        </g>
      </g>
    </g>
    <g transform="translate(206.359 54.212)">
      <g>
        <g>
          <path d="M2.32292 2.25L0 2.25L0 0L2.32292 0L2.32292 2.25Z" fill="#FFFFFF" />
        </g>
      </g>
    </g>
    <g transform="translate(204.141 51.634)">
      <g>
        <g>
          <path d="M2.32292 2.24479L0 2.24479L0 0L2.32292 0L2.32292 2.24479Z" fill="#FFFFFF" />
        </g>
      </g>
    </g>
    <g transform="translate(407.266 38.025)">
      <path d="M0 25.0989L0 50.2708L9.25521 50.2708L9.25521 31.1823L14.4531 31.1823L19.5833 31.2552L25.349 40.5885C25.349 40.5885 31.1198 49.9219 31.1198 49.9219C31.1198 49.9219 36.1719 50.1302 36.1719 50.1302C39.0208 50.2708 41.3021 50.1302 41.3021 49.8489C41.3021 49.5677 38.5938 45.2552 35.25 40.2344C31.901 35.2135 29.1927 30.9688 29.1927 30.8281C29.1927 30.6146 30.4063 29.9115 31.901 29.1302C43.0104 23.474 43.3646 7.77604 32.5417 1.97917C29.7656 0.567708 28.4844 0.427083 14.8125 0.213542C14.8125 0.213542 0 0 0 0C0 0 0 25.0989 0 25.0989ZM26.6302 8.8385C31.6875 10.9583 32.9688 16.6145 29.2656 20.7187C29.2656 20.7187 27.2031 23.052 27.2031 23.052C27.2031 23.052 18.2292 23.2656 18.2292 23.2656L9.25521 23.5468C9.25521 23.5468 9.25521 7.84892 9.25521 7.84892C9.25521 7.84892 16.7344 7.84892 16.7344 7.84892C21.5729 7.84892 25.1354 8.20308 26.6302 8.8385C26.6302 8.8385 26.6302 8.8385 26.6302 8.8385Z" fill="#000000" transform="translate(0 0.161)" />
    </g>
    <g transform="translate(80.443 37.556)">
      <path d="M0.208323 18.4115C0.489573 38.9323 0.557282 39.6354 5.29686 44.8334C8.64582 48.5573 13.8073 50.599 20.2187 50.599C29.6302 50.599 35.4167 47.3646 38.901 40.1979C38.901 40.1979 40.8542 36.1927 40.8542 36.1927C40.8542 36.1927 41.0625 18.0625 41.0625 18.0625L41.2708 0C41.2708 0 32.2083 0 32.2083 0C32.2083 0 32 17.849 32 17.849C31.7917 34.6458 31.724 35.8385 30.3281 37.6667C27.6771 41.25 25.5156 42.375 21.1927 42.4479C16.1771 42.5157 12.8958 40.7604 10.7396 36.8229C9.20313 34.224 9.13542 33.3802 9.13542 17.0052C9.13542 17.0052 9.13542 0 9.13542 0C9.13542 0 0 0 0 0C0 0 0.208323 18.4115 0.208323 18.4115Z" fill="#000000" fill-rule="evenodd" transform="translate(0.016 0)" />
    </g>
    <g transform="translate(199.089 37.348)">
      <path d="M0 25.2969C0 25.2969 0 50.5938 0 50.5938C0 50.5938 11.3021 50.5938 11.3021 50.5938C27.2552 50.5938 33.625 48.6719 39.7031 41.974C44.2136 36.9844 45.3542 33.4948 45.4271 24.9427C45.4271 18.3854 45.2136 17.0313 43.7083 14.25C41.0625 9.26563 39.3438 7.27083 35.4844 4.70313C29.6875 0.786458 25.7552 0 12.0156 0C12.0156 0 0 0 0 0C0 0 0 25.2969 0 25.2969ZM26.8281 9.54688C33.1927 12.2552 36.4844 17.4583 36.4844 24.9427C36.4844 30.7135 34.8385 34.4896 30.8333 37.8385C27.0417 41.1198 23.8229 42.0469 15.8073 42.0469C15.8073 42.0469 9.29688 42.0469 9.29688 42.0469C9.29688 42.0469 9.29688 7.625 9.29688 7.625C9.29688 7.625 16.6667 7.97917 16.6667 7.97917C21.2448 8.19792 25.0365 8.76563 26.8281 9.54688C26.8281 9.54688 26.8281 9.54688 26.8281 9.54688Z" fill="#000000" />
    </g>
    <g transform="translate(271.62 58.092)">
      <g>
        <g>
          <g>
            <g>
              <g>
                <g>
                  <path d="M9.32292 44.9844C9.32292 44.9844 4.14063 56.9688 4.05729 56.974C4.00517 56.9846 0 44.9531 0 44.5938C0.00533104 44.25 2.07292 0 2.07292 0C2.07292 0 8.48958 0.359375 8.51562 0.630208C8.55202 0.864583 9.32292 44.9844 9.32292 44.9844C9.32292 44.9844 9.32292 44.9844 9.32292 44.9844ZM5.53646 41.5417C4.57292 41.1042 3.13542 41.4114 2.34375 42.2135C0.541666 44.0521 1.70313 47.0156 4.26042 47.1354C6.19792 47.2188 7.73958 45.2448 7.16146 43.3958C6.91667 42.6458 6.22919 41.8385 5.53646 41.5417C5.53646 41.5417 5.53646 41.5417 5.53646 41.5417Z" fill="#000000" transform="translate(26.083 3.568)" />
                </g>
              </g>
            </g>
          </g>
        </g>
      </g>
    </g>
    <g transform="translate(247.813 -11.819)">
      <g>
        <g>
          <g transform="translate(0.24 0)">
            <g>
              <g>
                <g>
                  <path d="M12.2683 0.0143232C12.0131 0.321614 12.0339 2.32682 12.4766 14.4102C12.5391 16.5247 12.5287 18.3997 12.4558 18.5768C12.2475 18.9935 11.8621 19.0977 11.4558 18.8268C11.1694 18.6393 11.0912 18.1445 10.8412 14.5352C10.5079 9.6237 9.5756 0.118489 9.42977 0.118489C9.37765 0.134094 9.30483 0.592448 9.2579 1.14974C9.17456 2.56641 8.93498 11.7852 8.90373 14.9779C8.88293 16.4258 8.8256 17.8477 8.78918 18.1341C8.56523 19.5612 7.25273 19.5091 6.95064 18.0612C6.88292 17.7278 6.7371 15.931 6.64335 14.0664C6.46627 10.5716 5.49752 0.623677 5.32564 0.477844C5.16418 0.342427 5.10689 1.59243 4.86731 9.8268C4.74758 14.1341 4.62773 17.8424 4.60689 18.0872C4.51316 19.0299 3.49752 19.4362 3.08085 18.6758C2.89335 18.3268 2.59127 13.7591 2.41418 8.42055C2.28392 4.2591 2.00793 0.529948 1.83606 0.555989C1.47668 0.58199 0.705853 5.91536 0.315228 11.1081C0.00793457 15.2174 -0.0910225 19.8893 0.0912666 21.6237C0.419392 24.7279 1.76314 26.9102 4.50273 28.8164C5.02356 29.1862 5.53398 29.6133 5.61731 29.7591C6.01835 30.4674 5.20585 44.6758 4.64335 58.5924C4.12773 71.3424 3.95585 78.6758 3.87773 82.3477C3.85693 83.2122 4.21106 83.1862 4.20064 83.5143C4.19531 83.6081 3.6121 83.2331 3.73189 83.8581C4.11731 85.707 4.95585 87.1029 6.03398 87.7018C7.22148 88.3372 8.90377 88.3477 10.2944 87.7018C11.1486 87.3112 10.5756 86.8893 11.0913 85.8216C11.909 84.1341 11.1954 81.8008 11.1329 77.2279C11.0651 72.0508 11.4402 71.3893 10.8777 58.0872C10.3308 45.1966 9.18496 33.8372 9.39329 31.3581C9.52356 29.7799 9.57037 29.707 11.4037 28.2279C14.1641 26.0091 15.2527 23.5664 15.2839 19.5768C15.2995 17.7695 14.8829 13.8112 14.2683 10.1497C14.0964 9.10807 13.7058 6.73828 13.4193 4.91016C12.9089 1.78516 12.4454 -0.188802 12.2683 0.0143232C12.2683 0.0143232 12.2683 0.0143232 12.2683 0.0143232Z" fill="#000000" fill-rule="evenodd" transform="translate(47.216 11.819)" />
                </g>
              </g>
            </g>
          </g>
        </g>
      </g>
    </g>
    <g transform="translate(248.427 37.962)">
      <path d="M3.33854 0.289775C3.33854 0.289775 0 0.498108 0 0.498108C0 0.498108 0.90625 2.37311 0.90625 2.37311C1.46354 3.41998 5.91667 14.545 10.7865 27.0658C10.7865 27.0658 19.6927 49.8783 19.6927 49.8783C19.6927 49.8783 24.2188 49.67 24.2188 49.67C24.2188 49.67 28.6719 49.4617 28.6719 49.4617C28.6719 49.4617 38.3438 25.1179 38.3438 25.1179C43.6979 11.7637 48.0156 0.638733 48.0156 0.4304C48.0156 -0.199809 38.6927 0.565816 38.2708 1.19082C38.0625 1.47207 34.9323 10.0241 31.3125 20.1804C27.6979 30.3367 24.5625 38.6804 24.3542 38.6804C24.1458 38.6804 20.875 29.9877 16.9792 19.3471C9.11458 -2.07481 10.5104 -0.267517 3.33856 0.289775C3.33856 0.289775 3.33854 0.289775 3.33854 0.289775Z" fill="#000000" fill-rule="evenodd" transform="translate(0 0.101)" />
    </g>
    <g transform="translate(352.787 37.566)">
      <path d="M31.9531 0.884298C39.0208 2.61869 46.0208 8.36347 49.0729 15.0145C50.3177 17.7124 50.599 19.5145 50.599 25.8843C50.599 32.4624 50.3906 33.9156 49.0052 36.7541C46.3698 41.952 42.349 46.0353 37.2188 48.5301C32.9219 50.676 32.1615 50.8114 25.2969 50.8114C18.8542 50.8114 17.5365 50.6031 14.1406 49.0145C8.66667 46.452 4.92188 42.7801 2.28646 37.4468C0.140625 33.1551 0 32.3218 0 25.8843C0 19.8583 0.208333 18.4728 1.875 15.0145C5.19792 7.81138 12.1979 2.41034 20.3073 0.681173C24.8125 -0.292786 27.3802 -0.219869 31.9531 0.884298C31.9531 0.884298 31.9531 0.884298 31.9531 0.884298ZM17.9531 10.1655C14.2813 12.0353 10.3281 16.4676 9.42709 19.7906C7.625 26.1603 8.875 32.9468 12.6823 37.3114C17.1875 42.6395 24.3281 44.5093 31.1198 42.2281C34.1719 41.1864 38.8125 37.2385 40.2031 34.4728C44.2188 26.7853 42.1406 16.327 35.625 11.551C30.9115 8.01972 23.2917 7.39472 17.9531 10.1655C17.9531 10.1655 17.9531 10.1655 17.9531 10.1655Z" fill="#000000" transform="translate(0 0.095)" />
    </g>
    <g transform="translate(143.099 37.228)">
      <path d="M16.4375 12.5359C8.00521 31.7443 0 50.1766 0 50.4578C0 50.5256 2.10417 50.5984 4.63542 50.4578C4.63542 50.4578 9.27084 50.2443 9.27084 50.2443C9.27084 50.2443 11.3125 45.3224 11.3125 45.3224C12.4323 42.5776 13.9115 39.9735 14.5417 39.4787C15.7344 38.6349 33.2344 38.213 36.3229 39.0568C37.3802 39.338 38.4323 41.0307 40.1198 45.0412C40.1198 45.0412 42.4375 50.5984 42.4375 50.5984C42.4375 50.5984 51.9948 50.5984 51.9948 50.5984C51.9948 50.5984 50.6563 47.2182 50.6563 47.2182C49.8854 45.3901 47.7083 40.2547 45.6667 35.8224C43.7031 31.3901 39.4844 21.8901 36.3958 14.7182C33.3021 7.54116 30.4219 1.28074 30 0.78595C29.5781 0.22345 27.8906 -0.0578003 25.5729 0.00990804C25.5729 0.00990804 21.849 0.150513 21.849 0.150513C21.849 0.150513 16.4375 12.5359 16.4375 12.5359ZM30.4896 21.5412C32.6719 26.6766 34.4271 31.0359 34.4271 31.2495C34.4271 31.4578 30.6302 31.5984 25.9948 31.5984C20.8646 31.5984 17.5625 31.3172 17.5625 30.8953C17.5625 29.2807 25.5729 11.1974 26.0677 11.6922C26.3438 11.9734 28.3854 16.4734 30.4896 21.5412C30.4896 21.5412 30.4896 21.5412 30.4896 21.5412Z" fill="#000000" transform="translate(0.078 0.001)" />
    </g>
    <g transform="translate(0 37.566)">
      <path d="M0 25.1615L0 50.3281L36.1354 50.3281C36.1354 50.3281 36.1354 41.6823 36.1354 41.6823C36.1354 41.6823 31.7448 41.8906 31.7448 41.8906C29.2656 42.0365 23.2396 42.0365 18.2813 41.9636C18.2813 41.9636 9.20833 41.8229 9.20833 41.8229C9.20833 41.8229 9.20833 29.0625 9.20833 29.0625L32.5938 29.0625L32.5938 20.5573L9.20833 20.5573L9.20833 7.79688L35.4271 7.79688L35.4271 0L0 0L0 25.1615Z" fill="#000000" fill-rule="evenodd" transform="translate(0 0.125)" />
    </g>
    <g transform="translate(312.875 37.449)">
      <path d="M11.9183 0.596741C3.70473 2.95091 -0.399434 9.39362 1.0589 17.7009C1.48077 19.9874 2.31411 21.4405 4.26202 23.3103C6.97557 25.8728 9.54848 27.0499 18.2464 29.5447C26.8089 31.9665 29.4495 36.1228 25.4131 40.6228C21.8662 44.5707 14.6995 44.0863 7.88182 39.5186C7.88182 39.5186 4.26202 37.0915 4.26202 37.0915C4.26202 37.0915 2.45475 39.3103 2.45475 39.3103C-1.44631 43.8103 -1.09733 44.7113 6.41827 48.3832C10.6631 50.4561 11.4964 50.5967 17.9704 50.5967C25.9027 50.5967 28.9652 49.4874 32.7204 45.128C36.6162 40.7634 37.0329 32.8676 33.6266 28.0915C31.9547 25.7374 26.8766 23.0342 20.4027 21.1645C10.7308 18.3259 8.43911 16.3207 9.54848 11.8155C10.8037 6.83112 22.6318 6.89882 28.1995 11.9561C29.6579 13.2738 30.7047 12.5811 33.0693 8.84153C33.0693 8.84153 34.6006 6.41445 34.6006 6.41445C34.6006 6.41445 32.512 4.75299 32.512 4.75299C27.7099 0.877991 17.9704 -1.06472 11.9183 0.596741C11.9183 0.596741 11.9183 0.596741 11.9183 0.596741Z" fill="#000000" fill-rule="evenodd" transform="translate(0.103 0)" />
    </g>
    <g transform="translate(39.958 37.228)">
      <path d="M11.9427 1.01884C5.17708 3.43551 2.14063 7.71155 2.14063 14.8157C2.14063 22.123 5.66146 25.4355 17.1927 28.9511C26.0312 31.6438 27.8281 33.0918 27.5521 37.1595C27.4115 39.5761 26.9323 40.3313 24.9948 41.6438C20.9219 44.399 13.3958 43.2272 8.14583 39.024C8.14583 39.024 5.38542 36.748 5.38542 36.748C5.38542 36.748 2.69271 39.7793 2.69271 39.7793C2.69271 39.7793 0 42.748 0 42.748C0 42.748 1.86458 44.6751 1.86458 44.6751C2.82812 45.7115 5.59375 47.4355 7.86979 48.5397C11.599 50.1959 12.9792 50.472 18.7135 50.472C24.4427 50.472 25.7552 50.2636 28.724 48.6751C33.3542 46.3313 36.1146 42.399 36.5313 37.4355C36.9427 32.472 36.3906 30.6751 33.7656 27.7115C31.1406 24.6751 28.3125 23.1595 21.474 21.1595C11.8073 18.3313 9.59896 16.3313 10.7031 11.847C11.875 7.15946 21.75 6.7428 27.6927 11.2272C27.6927 11.2272 30.1094 12.9511 30.1094 12.9511C30.1094 12.9511 32.7292 10.0553 32.7292 10.0553C34.1146 8.47196 35.2865 6.95113 35.2865 6.60738C35.2865 6.33134 34.3906 5.43551 33.2135 4.60738C27.1354 0.263631 18.2969 -1.18429 11.9427 1.01884C11.9427 1.01884 11.9427 1.01884 11.9427 1.01884Z" fill="#000000" fill-rule="evenodd" transform="translate(0 0.064)" />
    </g>
  </g>
</svg>