<?xml version="1.0" encoding="UTF-8" standalone="no"?>
<svg
   width="448.56772"
   zoomAndPan="magnify"
   viewBox="0 0 336.42579 88.975586"
   height="118.63412"
   preserveAspectRatio="xMidYMid"
   version="1.0"
   id="svg58"
   sodipodi:docname="logo.svg"
   inkscape:version="1.4 (e7c3feb100, 2024-10-09)"
   xmlns:inkscape="http://www.inkscape.org/namespaces/inkscape"
   xmlns:sodipodi="http://sodipodi.sourceforge.net/DTD/sodipodi-0.dtd"
   xmlns="http://www.w3.org/2000/svg"
   xmlns:svg="http://www.w3.org/2000/svg">
  <sodipodi:namedview
     id="namedview58"
     pagecolor="#ffffff"
     bordercolor="#000000"
     borderopacity="0.25"
     inkscape:showpageshadow="2"
     inkscape:pageopacity="0.0"
     inkscape:pagecheckerboard="0"
     inkscape:deskcolor="#d1d1d1"
     inkscape:zoom="2.306"
     inkscape:cx="224.19775"
     inkscape:cy="54.423244"
     inkscape:window-width="2256"
     inkscape:window-height="1427"
     inkscape:window-x="0"
     inkscape:window-y="0"
     inkscape:window-maximized="1"
     inkscape:current-layer="svg58" />
  <defs
     id="defs29">
    <clipPath
       id="46a64badb7">
      <path
         d="m 173.15625,185.63672 h 2.40234 v 2.93359 h -2.40234 z m 0,0"
         clip-rule="nonzero"
         id="path1" />
    </clipPath>
    <clipPath
       id="49aa5b8187">
      <path
         d="m 174.37109,187.94922 c -1.23828,-1.72266 -1.16406,-2.03125 -1.00781,-2.14844 0.15625,-0.13672 0.5625,-0.19531 0.71484,-0.0781 0.17579,0.11718 0.13672,0.92968 0.17579,0.92968 0.0391,0 -0.0391,-0.62109 0.0586,-0.64062 0.17187,-0.0547 1.0625,1.16406 1.17969,1.6289 0.0586,0.28907 0.0195,0.63672 -0.13282,0.77344 -0.15625,0.15625 -0.60156,0.19531 -0.79687,0.0977 -0.15234,-0.0781 -0.30859,-0.34766 -0.30859,-0.52344 -0.0195,-0.19531 0.11718,-0.44531 0.25,-0.5625 0.0977,-0.0977 0.2539,-0.15234 0.39062,-0.13281 0.17188,0.0156 0.44531,0.13281 0.55859,0.28906 0.0977,0.13672 0.11719,0.44531 0.0586,0.60156 -0.0391,0.13282 -0.13672,0.26953 -0.26953,0.32813 -0.17578,0.0781 -0.52344,0.0781 -0.79297,-0.0781 -0.40625,-0.25 -1.06641,-1.27734 -1.20313,-1.76172 -0.0781,-0.28906 0,-0.7539 0.0391,-0.7539 0.0391,-0.0195 0.2539,0.89062 0.19531,0.91015 -0.0391,0.0195 -0.25391,-0.19531 -0.29297,-0.33203 -0.0547,-0.17187 -0.0195,-0.44531 0.0781,-0.57812 0.0781,-0.13672 0.21485,-0.23438 0.36719,-0.25391 0.15625,-0.0391 0.3711,0 0.5625,0.11719 0.34766,0.23047 0.96875,1.10156 1.16406,1.49219 0.0937,0.1914 0.15235,0.32812 0.13282,0.48047 -0.0195,0.15625 -0.15235,0.39062 -0.28907,0.46484 -0.13671,0.0781 -0.40625,0.0781 -0.54296,0.0195 -0.13672,-0.0391 -0.28907,-0.28906 -0.28907,-0.28906"
         clip-rule="nonzero"
         id="path2" />
    </clipPath>
    <clipPath
       id="2e4e64cbc9">
      <path
         d="m 190.57031,182.60156 h 0.37891 v 0.31641 h -0.37891 z m 0,0"
         clip-rule="nonzero"
         id="path3" />
    </clipPath>
    <clipPath
       id="d4979208e1">
      <path
         d="m 190.57031,182.80078 c 0.17578,-0.25 0.33203,-0.21484 0.36719,-0.15625 0.0195,0.0586 0,0.21484 -0.0547,0.25391 -0.0391,0.0391 -0.2539,-0.0195 -0.2539,-0.0195"
         clip-rule="nonzero"
         id="path4" />
    </clipPath>
    <clipPath
       id="c644fb4cc0">
      <path
         d="m 173,185.8125 h 1.9375 v 2.70312 H 173 Z m 0,0"
         clip-rule="nonzero"
         id="path5" />
    </clipPath>
    <clipPath
       id="4dce9fd78b">
      <path
         d="m 173.1875,186.14844 c 0.63672,1.21875 1.17969,1.80078 1.375,2.01172 0.0937,0.0977 0.17187,0.19531 0.21094,0.17578 0.0195,-0.0195 -0.0195,-0.15625 -0.0586,-0.25391 -0.0742,-0.17187 -0.21093,-0.38672 -0.38672,-0.63672 -0.26953,-0.42578 -1.17968,-1.60937 -1.17968,-1.625 0.0195,0 1.60547,1.72266 1.74218,2.20703 0.0781,0.21094 0.0391,0.44532 -0.0391,0.48047 -0.0977,0.0391 -0.34765,-0.17187 -0.54297,-0.34765 -0.26953,-0.23047 -0.65625,-0.71485 -0.87109,-1.0625 -0.19141,-0.29297 -0.48438,-0.75782 -0.42578,-0.89063 0.0195,-0.0586 0.17578,-0.0586 0.17578,-0.0586"
         clip-rule="nonzero"
         id="path6" />
    </clipPath>
    <clipPath
       id="ca15e3d6a1">
      <path
         d="m 173.16406,186.14844 h 0.0937 v 0.082 h -0.0937 z m 0,0"
         clip-rule="nonzero"
         id="path7" />
    </clipPath>
    <clipPath
       id="d63b6b6a42">
      <path
         d="m 173.17187,186.16797 c 0.17188,-0.0586 0.0195,0.0586 0.0195,0.0586"
         clip-rule="nonzero"
         id="path8" />
    </clipPath>
    <clipPath
       id="7b7ef4b8b7">
      <path
         d="m 174.67578,188.31641 h 0.0937 v 0.0859 h -0.0937 z m 0,0"
         clip-rule="nonzero"
         id="path9" />
    </clipPath>
    <clipPath
       id="4c23a3c516">
      <path
         d="m 174.67969,188.33594 c 0.17578,-0.0547 0.0195,0.0586 0.0195,0.0586"
         clip-rule="nonzero"
         id="path10" />
    </clipPath>
    <clipPath
       id="be7c7e3129">
      <path
         d="m 173.01172,186.37891 h 0.0898 v 0.0859 h -0.0898 z m 0,0"
         clip-rule="nonzero"
         id="path11" />
    </clipPath>
    <clipPath
       id="2e2647ad3b">
      <path
         d="m 173.01562,186.40234 c 0.17579,-0.0586 0.0195,0.0586 0.0195,0.0586"
         clip-rule="nonzero"
         id="path12" />
    </clipPath>
    <clipPath
       id="9e4de5fb5c">
      <path
         d="m 324.56641,175.34375 h 30.97656 v 37.86328 h -30.97656 z m 0,0"
         clip-rule="nonzero"
         id="path13" />
    </clipPath>
    <clipPath
       id="58e83e3bf2">
      <path
         d="m 79.449219,175.06641 h 30.976561 v 37.875 H 79.449219 Z m 0,0"
         clip-rule="nonzero"
         id="path14" />
    </clipPath>
    <clipPath
       id="718f44983d">
      <path
         d="m 168.45703,174.83594 h 34.05078 v 37.94531 h -34.05078 z m 0,0"
         clip-rule="nonzero"
         id="path15" />
    </clipPath>
    <clipPath
       id="863ad090f8">
      <path
         d="m 242,193 h 8 v 43 h -8 z m 0,0"
         clip-rule="nonzero"
         id="path16" />
    </clipPath>
    <clipPath
       id="f3a8099e0b">
      <path
         d="m 223.82812,236.29687 -0.99609,-44.90625 44.90625,-0.99609 0.99609,44.90625 z m 0,0"
         clip-rule="nonzero"
         id="path17" />
    </clipPath>
    <clipPath
       id="c72cd04f06">
      <path
         d="m 223.82812,236.29687 -0.99609,-44.90625 44.90625,-0.99609 0.99609,44.90625 z m 0,0"
         clip-rule="nonzero"
         id="path18" />
    </clipPath>
    <clipPath
       id="4a79491b4b">
      <path
         d="m 223.82812,236.29687 -0.99609,-44.90625 44.90625,-0.99609 0.99609,44.90625 z m 0,0"
         clip-rule="nonzero"
         id="path19" />
    </clipPath>
    <clipPath
       id="e892303a3c">
      <path
         d="m 240,146 h 13 v 67 h -13 z m 0,0"
         clip-rule="nonzero"
         id="path20" />
    </clipPath>
    <clipPath
       id="9c6803989d">
      <path
         d="m 275.20703,137.99219 11.86328,69.46484 -70.23047,11.99609 -11.86328,-69.46875 z m 0,0"
         clip-rule="nonzero"
         id="path21" />
    </clipPath>
    <clipPath
       id="56853abacb">
      <path
         d="m 205.15625,149.95703 11.86328,69.46484 70.23047,-11.99609 -11.86328,-69.46484 z m 0,0"
         clip-rule="nonzero"
         id="path22" />
    </clipPath>
    <clipPath
       id="3cb4aec62b">
      <path
         d="m 205.15625,149.95703 11.86328,69.46484 70.23047,-11.99609 -11.86328,-69.46484 z m 0,0"
         clip-rule="nonzero"
         id="path23" />
    </clipPath>
    <clipPath
       id="c2dd00a2b7">
      <path
         d="m 205.56641,175.29687 h 35.88281 v 37.5586 h -35.88281 z m 0,0"
         clip-rule="nonzero"
         id="path24" />
    </clipPath>
    <clipPath
       id="b45813d7fc">
      <path
         d="m 283.70703,175 h 37.94922 v 38.29297 h -37.94922 z m 0,0"
         clip-rule="nonzero"
         id="path25" />
    </clipPath>
    <clipPath
       id="f3c3c2ea6d">
      <path
         d="m 126.44141,174.74609 h 39.08593 v 37.94922 h -39.08593 z m 0,0"
         clip-rule="nonzero"
         id="path26" />
    </clipPath>
    <clipPath
       id="46b9041d78">
      <path
         d="m 19.117188,175 h 27.0625 v 37.94141 h -27.0625 z m 0,0"
         clip-rule="nonzero"
         id="path27" />
    </clipPath>
    <clipPath
       id="790ce5ea0c">
      <path
         d="m 253.77344,174.91406 h 26.92578 v 37.94531 h -26.92578 z m 0,0"
         clip-rule="nonzero"
         id="path28" />
    </clipPath>
    <clipPath
       id="8d534f0f72">
      <path
         d="m 49.085938,174.74609 h 27.453124 v 37.94922 H 49.085938 Z m 0,0"
         clip-rule="nonzero"
         id="path29" />
    </clipPath>
  </defs>
  <g
     clip-path="url(#46a64badb7)"
     id="g31"
     transform="translate(-19.117188,-146.8252)">
    <g
       clip-path="url(#49aa5b8187)"
       id="g30">
      <path
         fill="#ffffff"
         d="m 176.28516,189.28516 h -3.89063 V 184.875 h 3.89063 z m 0,0"
         fill-opacity="1"
         fill-rule="nonzero"
         id="path30" />
    </g>
  </g>
  <g
     clip-path="url(#2e4e64cbc9)"
     id="g33"
     transform="translate(-19.117188,-146.8252)">
    <g
       clip-path="url(#d4979208e1)"
       id="g32">
      <path
         fill="#ffffff"
         d="m 191.71484,183.67187 h -1.91406 v -1.8789 h 1.91406 z m 0,0"
         fill-opacity="1"
         fill-rule="nonzero"
         id="path31" />
    </g>
  </g>
  <g
     clip-path="url(#c644fb4cc0)"
     id="g35"
     transform="translate(-19.117188,-146.8252)">
    <g
       clip-path="url(#4dce9fd78b)"
       id="g34">
      <path
         fill="#ffffff"
         d="m 175.66406,189.28516 h -3.44531 v -4.24219 h 3.44531 z m 0,0"
         fill-opacity="1"
         fill-rule="nonzero"
         id="path33" />
    </g>
  </g>
  <g
     clip-path="url(#ca15e3d6a1)"
     id="g37"
     transform="translate(-19.117188,-146.8252)">
    <g
       clip-path="url(#d63b6b6a42)"
       id="g36">
      <path
         fill="#ffffff"
         d="M 174.12109,187 H 172.375 v -1.68359 h 1.74609 z m 0,0"
         fill-opacity="1"
         fill-rule="nonzero"
         id="path35" />
    </g>
  </g>
  <g
     clip-path="url(#7b7ef4b8b7)"
     id="g39"
     transform="translate(-19.117188,-146.8252)">
    <g
       clip-path="url(#4c23a3c516)"
       id="g38">
      <path
         fill="#ffffff"
         d="m 175.62891,189.17187 h -1.74219 v -1.6875 h 1.74219 z m 0,0"
         fill-opacity="1"
         fill-rule="nonzero"
         id="path37" />
    </g>
  </g>
  <g
     clip-path="url(#be7c7e3129)"
     id="g41"
     transform="translate(-19.117188,-146.8252)">
    <g
       clip-path="url(#2e2647ad3b)"
       id="g40">
      <path
         fill="#ffffff"
         d="m 173.96484,187.23437 h -1.74218 v -1.68359 h 1.74218 z m 0,0"
         fill-opacity="1"
         fill-rule="nonzero"
         id="path39" />
    </g>
  </g>
  <g
     clip-path="url(#9e4de5fb5c)"
     id="g42"
     transform="translate(-19.117188,-146.8252)">
    <path
       fill="#0087cc"
       d="m 324.56641,194.28906 v 18.87891 h 6.9414 v -14.31641 h 3.89844 l 3.84766,0.0547 4.32421,7 4.32813,7 c 0,0 3.78906,0.15625 3.78906,0.15625 2.13672,0.10547 3.84766,0 3.84766,-0.21094 0,-0.21094 -2.03125,-3.44531 -4.53906,-7.21094 -2.51172,-3.76562 -4.54297,-6.94921 -4.54297,-7.05468 0,-0.16016 0.91015,-0.6875 2.03125,-1.27344 8.33203,-4.24219 8.59765,-16.01563 0.48047,-20.36328 -2.08204,-1.0586 -3.04297,-1.16406 -13.29688,-1.32422 0,0 -11.10937,-0.16016 -11.10937,-0.16016 z m 19.97265,-12.19531 c 3.79297,1.58984 4.75391,5.83203 1.97656,8.91016 0,0 -1.54687,1.75 -1.54687,1.75 l -6.73047,0.16015 -6.73047,0.21094 v -11.77344 c 0,0 5.60938,0 5.60938,0 3.6289,0 6.30078,0.26563 7.42187,0.74219 z m 0,0"
       fill-opacity="1"
       fill-rule="nonzero"
       id="path41" />
  </g>
  <g
     clip-path="url(#58e83e3bf2)"
     id="g43"
     transform="translate(-19.117188,-146.8252)">
    <path
       fill="#0087cc"
       d="m 79.617188,188.80078 c 0.210937,15.39063 0.261718,15.91797 3.816406,19.81641 2.511718,2.79297 6.382812,4.32422 11.191406,4.32422 7.05859,0 11.39844,-2.42579 14.01172,-7.80079 0,0 1.46484,-3.0039 1.46484,-3.0039 l 0.15625,-13.59766 0.15625,-13.54687 h -6.79687 c 0,0 -0.15625,13.38672 -0.15625,13.38672 -0.15625,12.59765 -0.20703,13.49218 -1.25391,14.86328 -1.98828,2.6875 -3.609374,3.53125 -6.851561,3.58593 -3.761719,0.0508 -6.222657,-1.26562 -7.839844,-4.21875 -1.152344,-1.94921 -1.203125,-2.58203 -1.203125,-14.86328 0,0 0,-12.7539 0,-12.7539 h -6.851562 z m 0,0"
       fill-opacity="1"
       fill-rule="evenodd"
       id="path42" />
  </g>
  <g
     clip-path="url(#718f44983d)"
     id="g44"
     transform="translate(-19.117188,-146.8252)">
    <path
       fill="#0087cc"
       d="m 168.43359,193.80859 v 18.97266 c 0,0 8.47657,0 8.47657,0 11.96484,0 16.74218,-1.44141 21.30078,-6.46484 3.38281,-3.74219 4.23828,-6.35938 4.29297,-12.77344 0,-4.91797 -0.16016,-5.9336 -1.28907,-8.01953 -1.98437,-3.73828 -3.27343,-5.23438 -6.16797,-7.16016 -4.34765,-2.9375 -7.29687,-3.52734 -17.60156,-3.52734 0,0 -9.01172,0 -9.01172,0 z m 20.1211,-11.8125 c 4.77343,2.03125 7.24218,5.9336 7.24218,11.54688 0,4.32812 -1.23437,7.16015 -4.23828,9.67187 -2.84375,2.46094 -5.25781,3.15625 -11.26953,3.15625 0,0 -4.88281,0 -4.88281,0 v -25.8164 c 0,0 5.52734,0.26562 5.52734,0.26562 3.4336,0.16406 6.27735,0.58985 7.6211,1.17578 z m 0,0"
       fill-opacity="1"
       fill-rule="nonzero"
       id="path43" />
  </g>
  <g
     clip-path="url(#863ad090f8)"
     id="g48"
     transform="translate(-19.117188,-146.8252)">
    <g
       clip-path="url(#f3a8099e0b)"
       id="g47">
      <g
         clip-path="url(#c72cd04f06)"
         id="g46">
        <g
           clip-path="url(#4a79491b4b)"
           id="g45">
          <path
             fill="#0087cc"
             d="m 249.38672,226.80859 c 0,0 -3.88672,8.98828 -3.94922,8.99219 -0.0391,0.008 -3.04297,-9.01562 -3.04297,-9.28516 0.004,-0.25781 1.55469,-33.44531 1.55469,-33.44531 0,0 4.8125,0.26953 4.83203,0.47266 0.0273,0.17578 0.60547,33.26562 0.60547,33.26562 z m -2.83985,-2.58203 c -0.72265,-0.32812 -1.80078,-0.0977 -2.39453,0.50391 -1.35156,1.3789 -0.48047,3.60156 1.4375,3.6914 1.45313,0.0625 2.60938,-1.41796 2.17578,-2.80468 -0.18359,-0.5625 -0.69921,-1.16797 -1.21875,-1.39063 z m 0,0"
             fill-opacity="1"
             fill-rule="nonzero"
             id="path44" />
        </g>
      </g>
    </g>
  </g>
  <g
     clip-path="url(#e892303a3c)"
     id="g52"
     transform="translate(-19.117188,-146.8252)">
    <g
       clip-path="url(#9c6803989d)"
       id="g51">
      <g
         clip-path="url(#56853abacb)"
         id="g50">
        <g
           clip-path="url(#3cb4aec62b)"
           id="g49">
          <path
             fill="#0087cc"
             d="m 249.76953,146.83594 c -0.19141,0.23047 -0.17578,1.73437 0.15625,10.79687 0.0469,1.58594 0.0391,2.99219 -0.0156,3.125 -0.15625,0.3125 -0.44532,0.39063 -0.75,0.1875 -0.21485,-0.14062 -0.27344,-0.51172 -0.46094,-3.21875 -0.25,-3.68359 -0.94922,-10.8125 -1.0586,-10.8125 -0.0391,0.0117 -0.0937,0.35547 -0.1289,0.77344 -0.0625,1.0625 -0.24219,7.97656 -0.26563,10.37109 -0.0156,1.08594 -0.0586,2.15235 -0.0859,2.36719 -0.16797,1.07031 -1.15235,1.03125 -1.37891,-0.0547 -0.0508,-0.25 -0.16016,-1.59765 -0.23047,-2.99609 -0.13281,-2.62109 -0.85937,-10.08203 -0.98828,-10.19141 -0.12109,-0.10156 -0.16406,0.83594 -0.34375,7.01172 -0.0898,3.23047 -0.17969,6.01172 -0.19531,6.19531 -0.0703,0.70704 -0.83203,1.01172 -1.14453,0.44141 -0.14063,-0.26172 -0.36719,-3.6875 -0.5,-7.69141 -0.0977,-3.12109 -0.30469,-5.91796 -0.4336,-5.89843 -0.26953,0.0195 -0.84765,4.01953 -1.14062,7.91406 -0.23047,3.08203 -0.30469,6.58594 -0.16797,7.88672 0.24609,2.32812 1.2539,3.96484 3.30859,5.39453 0.39063,0.27734 0.77344,0.59766 0.83594,0.70703 0.30078,0.53125 -0.30859,11.1875 -0.73047,21.625 -0.38672,9.5625 -0.51562,15.0625 -0.57422,17.81641 -0.0156,0.64843 0.25,0.6289 0.24219,0.875 -0.004,0.0703 -0.44141,-0.21094 -0.35156,0.25781 0.28906,1.38672 0.91797,2.43359 1.72656,2.88281 0.89062,0.47656 2.15234,0.48438 3.19531,0 0.64063,-0.29297 0.21094,-0.60937 0.59766,-1.41015 0.61328,-1.26563 0.0781,-3.01563 0.0312,-6.44532 -0.0508,-3.88281 0.23047,-4.3789 -0.19141,-14.35547 -0.41015,-9.66796 -1.26953,-18.1875 -1.11328,-20.04687 0.0977,-1.18359 0.13281,-1.23828 1.50781,-2.34766 2.07032,-1.66406 2.88672,-3.49609 2.91016,-6.48828 0.0117,-1.35547 -0.30078,-4.32422 -0.76172,-7.07031 -0.12891,-0.78125 -0.42187,-2.55859 -0.63672,-3.92969 -0.38281,-2.34375 -0.73047,-3.82422 -0.86328,-3.67187 z m 0,0"
             fill-opacity="1"
             fill-rule="evenodd"
             id="path48" />
        </g>
      </g>
    </g>
  </g>
  <g
     clip-path="url(#c2dd00a2b7)"
     id="g53"
     transform="translate(-19.117188,-146.8252)">
    <path
       fill="#0087cc"
       d="m 207.94141,175.58984 -2.50391,0.15625 c 0,0 0.67969,1.40625 0.67969,1.40625 0.41797,0.78516 3.75781,9.12891 7.41015,18.51953 0,0 6.67969,17.10938 6.67969,17.10938 l 3.39453,-0.15625 3.33985,-0.15625 c 0,0 7.2539,-18.25781 7.2539,-18.25781 4.01563,-10.01563 7.25391,-18.35938 7.25391,-18.51563 0,-0.47265 -6.99219,0.10156 -7.3086,0.57031 -0.15625,0.21094 -2.5039,6.625 -5.21875,14.24219 -2.71093,7.61719 -5.0625,13.875 -5.21875,13.875 -0.15625,0 -2.60937,-6.51953 -5.53125,-14.5 -5.89843,-16.0664 -4.85156,-14.71094 -10.23046,-14.29297 z m 0,0"
       fill-opacity="1"
       fill-rule="evenodd"
       id="path52" />
  </g>
  <g
     clip-path="url(#b45813d7fc)"
     id="g54"
     transform="translate(-19.117188,-146.8252)">
    <path
       fill="#0087cc"
       d="m 307.67187,175.73437 c 5.30079,1.30079 10.55079,5.60938 12.83985,10.59766 0.93359,2.02344 1.14453,3.375 1.14453,8.15234 0,4.9336 -0.15625,6.02344 -1.19531,8.15235 -1.97657,3.89844 -4.99219,6.96094 -8.83985,8.83203 -3.22265,1.60937 -3.79297,1.71094 -8.9414,1.71094 -4.83203,0 -5.82032,-0.15625 -8.36719,-1.34766 -4.10547,-1.92187 -6.91406,-4.67578 -8.89063,-8.67578 -1.60937,-3.21875 -1.71484,-3.84375 -1.71484,-8.67188 0,-4.51953 0.15625,-5.55859 1.40625,-8.15234 2.49219,-5.40234 7.74219,-9.45312 13.82422,-10.75 3.37891,-0.73047 5.30469,-0.67578 8.73437,0.15234 z m -10.5,6.96094 c -2.7539,1.40235 -5.71875,4.72656 -6.39453,7.21875 -1.35156,4.77735 -0.41406,9.86719 2.44141,13.14063 3.37891,3.99609 8.73437,5.39843 13.82812,3.6875 2.28907,-0.78125 5.76954,-3.74219 6.8125,-5.81641 3.01172,-5.76562 1.45313,-13.60937 -3.43359,-17.19141 -3.53516,-2.64843 -9.25,-3.11718 -13.25391,-1.03906 z m 0,0"
       fill-opacity="1"
       fill-rule="nonzero"
       id="path53" />
  </g>
  <g
     clip-path="url(#f3c3c2ea6d)"
     id="g55"
     transform="translate(-19.117188,-146.8252)">
    <path
       fill="#0087cc"
       d="M 138.82812,184.14844 C 132.50391,198.55469 126.5,212.37891 126.5,212.58984 c 0,0.0508 1.57812,0.10547 3.47656,0 0,0 3.47656,-0.16015 3.47656,-0.16015 0,0 1.53125,-3.69141 1.53125,-3.69141 0.83985,-2.05859 1.94922,-4.01172 2.42188,-4.38281 0.89453,-0.63281 14.01953,-0.94922 16.33594,-0.31641 0.79297,0.21094 1.58203,1.48047 2.84765,4.48828 0,0 1.73828,4.16797 1.73828,4.16797 h 7.16797 c 0,0 -1.0039,-2.53515 -1.0039,-2.53515 -0.57813,-1.3711 -2.21094,-5.22266 -3.74219,-8.54688 -1.47266,-3.32422 -4.63672,-10.44922 -6.95313,-15.82812 -2.32031,-5.38282 -4.48046,-10.07813 -4.79687,-10.44922 -0.31641,-0.42188 -1.58203,-0.63282 -3.32031,-0.58203 0,0 -2.79297,0.10546 -2.79297,0.10546 z m 10.53907,6.7539 c 1.63672,3.85157 2.95312,7.1211 2.95312,7.28125 0,0.15625 -2.84765,0.26172 -6.32422,0.26172 -3.84765,0 -6.32422,-0.21094 -6.32422,-0.52734 0,-1.21094 6.00782,-14.77344 6.37891,-14.40235 0.20703,0.21094 1.73828,3.58594 3.31641,7.38672 z m 0,0"
       fill-opacity="1"
       fill-rule="nonzero"
       id="path54" />
  </g>
  <g
     clip-path="url(#46b9041d78)"
     id="g56"
     transform="translate(-19.117188,-146.8252)">
    <path
       fill="#0087cc"
       d="m 19.117188,193.96484 v 18.875 H 46.21875 v -6.48437 c 0,0 -3.292969,0.15625 -3.292969,0.15625 -1.859375,0.10937 -6.378906,0.10937 -10.097656,0.0547 0,0 -6.804687,-0.10547 -6.804687,-0.10547 v -9.57032 H 43.5625 v -6.3789 H 26.023438 v -9.57031 H 45.6875 v -5.84766 H 19.117188 Z m 0,0"
       fill-opacity="1"
       fill-rule="evenodd"
       id="path55" />
  </g>
  <g
     clip-path="url(#790ce5ea0c)"
     id="g57"
     transform="translate(-19.117188,-146.8252)">
    <path
       fill="#0087cc"
       d="m 262.78906,175.35937 c -6.16015,1.76563 -9.23828,6.59766 -8.14453,12.82813 0.31641,1.71484 0.94141,2.80469 2.40234,4.20703 2.03516,1.92188 3.96485,2.80469 10.48829,4.67578 6.42187,1.81641 8.40234,4.9336 5.375,8.3086 -2.66016,2.96093 -8.03516,2.59765 -13.14844,-0.82813 0,0 -2.71485,-1.82031 -2.71485,-1.82031 0,0 -1.35546,1.66406 -1.35546,1.66406 -2.92579,3.375 -2.66407,4.05078 2.97265,6.80469 3.1836,1.55469 3.8086,1.66015 8.66406,1.66015 5.94922,0 8.2461,-0.83203 11.0625,-4.10156 2.92188,-3.27344 3.23438,-9.19531 0.67969,-12.77734 -1.2539,-1.76563 -5.0625,-3.79297 -9.91797,-5.19531 -7.2539,-2.12891 -8.97265,-3.63282 -8.14062,-7.01172 0.9414,-3.73828 9.8125,-3.6875 13.98828,0.10547 1.09375,0.98828 1.87891,0.46875 3.65234,-2.33594 0,0 1.14844,-1.82031 1.14844,-1.82031 0,0 -1.56641,-1.2461 -1.56641,-1.2461 -3.60156,-2.90625 -10.90625,-4.36328 -15.44531,-3.11719 z m 0,0"
       fill-opacity="1"
       fill-rule="evenodd"
       id="path56" />
  </g>
  <g
     clip-path="url(#8d534f0f72)"
     id="g58"
     transform="translate(-19.117188,-146.8252)">
    <path
       fill="#0087cc"
       d="m 58.042969,175.55859 c -5.074219,1.8125 -7.351563,5.01953 -7.351563,10.34766 0,5.48047 2.640625,7.96484 11.289063,10.60156 6.628906,2.01953 7.976562,3.10547 7.769531,6.15625 -0.105469,1.8125 -0.464844,2.37891 -1.917969,3.36328 -3.054687,2.06641 -8.699219,1.1875 -12.636719,-1.96484 0,0 -2.070312,-1.70703 -2.070312,-1.70703 l -2.019531,2.27344 -2.019531,2.22656 c 0,0 1.398437,1.44531 1.398437,1.44531 0.722656,0.77734 2.796875,2.07031 4.503906,2.89844 2.796875,1.24219 3.832031,1.44922 8.132813,1.44922 4.296875,0 5.28125,-0.15625 7.507812,-1.34766 3.472656,-1.75781 5.542969,-4.70703 5.855469,-8.42969 0.308594,-3.72265 -0.105469,-5.07031 -2.074219,-7.29297 -1.96875,-2.27734 -4.089844,-3.41406 -9.21875,-4.91406 -7.25,-2.12109 -8.90625,-3.62109 -8.078125,-6.98437 0.878907,-3.51563 8.285157,-3.82813 12.742188,-0.46485 0,0 1.8125,1.29297 1.8125,1.29297 0,0 1.964843,-2.17187 1.964843,-2.17187 1.039063,-1.1875 1.917969,-2.32813 1.917969,-2.58594 0,-0.20703 -0.671875,-0.87891 -1.554687,-1.5 -4.558594,-3.25781 -11.1875,-4.34375 -15.953125,-2.69141 z m 0,0"
       fill-opacity="1"
       fill-rule="evenodd"
       id="path57" />
  </g>
</svg>
